<?xml version="1.0" standalone="no"?>
<!DOCTYPE svg PUBLIC "-//W3C//DTD SVG 20010904//EN"
 "http://www.w3.org/TR/2001/REC-SVG-20010904/DTD/svg10.dtd">
<svg version="1.0" xmlns="http://www.w3.org/2000/svg"
 width="150.000000pt" height="150.000000pt" viewBox="0 0 150.000000 150.000000"
 preserveAspectRatio="xMidYMid meet">
<metadata>
Created by potrace 1.14, written by Peter Selinger 2001-2017
</metadata>
<g transform="translate(0.000000,150.000000) scale(0.100000,-0.100000)"
fill="#000000" stroke="none">
<path d="M638 1490 c-86 -15 -163 -42 -243 -83 -112 -58 -244 -190 -302 -302
-81 -157 -107 -313 -79 -474 49 -279 234 -496 501 -587 106 -36 285 -45 398
-20 149 33 314 134 408 250 66 81 133 217 154 311 25 111 17 292 -18 398 -78
239 -276 425 -522 491 -72 20 -232 28 -297 16z m-98 -525 c16 -16 35 -46 41
-68 9 -32 7 -45 -11 -82 l-21 -43 21 -34 c36 -59 19 -141 -38 -183 -33 -24
-173 -35 -197 -15 -20 17 -22 429 -2 449 8 9 37 12 94 9 75 -3 84 -6 113 -33z
m278 5 c2 -15 -20 -74 -53 -144 -30 -65 -55 -120 -55 -122 0 -3 12 -4 28 -2
22 2 28 9 32 38 4 28 10 36 29 38 28 4 51 -20 51 -54 0 -15 8 -24 25 -28 18
-5 25 -13 25 -31 0 -17 -8 -29 -25 -37 -19 -9 -25 -19 -25 -43 0 -38 -20 -58
-52 -53 -19 2 -23 10 -26 46 l-3 42 -63 0 c-66 0 -86 10 -86 46 0 19 111 287
134 322 4 7 20 12 34 10 20 -2 28 -9 30 -28z m208 5 c14 -21 15 -31 5 -51 -6
-14 -11 -40 -11 -59 0 -33 -1 -34 -39 -33 -37 0 -39 2 -44 37 -3 20 -9 50 -12
67 -13 61 67 91 101 39z m0 -180 c13 -20 14 -30 4 -60 -12 -35 -10 -98 5 -142
5 -16 0 -28 -19 -48 -29 -29 -60 -27 -84 4 -13 15 -12 30 4 95 4 15 1 52 -6
82 -12 49 -11 56 5 74 26 28 71 26 91 -5z m178 -174 c24 -26 17 -72 -12 -87
-17 -8 -35 -8 -73 2 -27 7 -55 11 -62 8 -9 -3 -12 8 -12 36 0 38 1 40 30 41
16 0 39 4 50 9 33 14 61 11 79 -9z"/>
<path d="M400 865 c0 -55 0 -55 31 -55 48 0 69 16 69 53 0 43 -15 57 -62 57
l-38 0 0 -55z"/>
<path d="M400 670 l0 -60 38 0 c63 0 91 48 56 98 -11 16 -25 22 -55 22 l-39 0
0 -60z"/>
<path d="M957 963 c-12 -11 -7 -33 8 -39 20 -8 45 13 38 32 -5 14 -34 19 -46
7z"/>
<path d="M954 775 c-8 -19 3 -35 26 -35 19 0 30 17 23 38 -6 17 -42 15 -49 -3z"/>
<path d="M954 595 c-8 -19 3 -35 26 -35 22 0 33 23 17 39 -15 15 -37 14 -43
-4z"/>
<path d="M1147 604 c-4 -4 -7 -16 -7 -26 0 -13 7 -18 26 -18 21 0 25 4 22 22
-3 23 -27 35 -41 22z"/>
</g>
</svg>
